<?xml version="1.0"?>
<svg xmlns="http://www.w3.org/2000/svg" id="Capa_1" enable-background="new 0 0 512.002 512.002" height="512px" viewBox="0 0 512.002 512.002" width="512px"><g><g><path d="m307.563 185.385c-3.144-11.725-13.859-20.385-26.562-20.385h-50c-12.703 0-23.418 8.66-26.562 20.385-28.626 3.268-50.938 27.628-50.938 57.115 0 23.255 14.244 44.204 35.338 53.044-.216 2.192-.338 4.4-.338 6.621v14.12c-8.73 3.096-15 11.437-15 21.215 0 12.406 10.094 22.5 22.5 22.5 5.227 0 10.208-1.848 14.149-5.039 2.534 1.789 5.362 3.122 8.351 3.973v130.161l-24.872 8.29c-3.929 1.31-6.053 5.558-4.743 9.487 1.048 3.143 3.974 5.13 7.114 5.13.786 0 1.586-.125 2.373-.387l30-10c3.063-1.021 5.128-3.887 5.128-7.115v-135.56c2.654-.757 5.185-1.9 7.5-3.412 4.425 2.889 9.629 4.472 15 4.472s10.575-1.583 15-4.472c2.315 1.511 4.846 2.655 7.5 3.412v135.56c0 3.229 2.065 6.095 5.128 7.115l30 10c.787.262 1.587.387 2.373.387 3.141 0 6.066-1.987 7.114-5.13 1.31-3.93-.814-8.178-4.743-9.487l-24.872-8.29v-130.161c2.989-.851 5.818-2.184 8.352-3.973 3.941 3.191 8.922 5.039 14.148 5.039 12.406 0 22.5-10.094 22.5-22.5 0-9.778-6.27-18.119-15-21.215v-14.12c0-2.221-.122-4.429-.338-6.621 21.094-8.841 35.338-29.79 35.338-53.044 0-29.486-22.313-53.846-50.938-57.115zm-139.062 57.115c0-20.875 15.132-38.27 35-41.824v59.083c-5.044 6.238-8.887 13.281-11.426 20.777-14.18-7.088-23.574-21.8-23.574-38.036zm147.5 102.5c-2.881 0-5.541-1.695-6.776-4.319-1.143-2.425-3.492-4.056-6.163-4.278-.209-.017-.416-.025-.623-.025-2.445 0-4.754 1.195-6.162 3.227-2.344 3.379-6.185 5.396-10.275 5.396-3.572 0-6.988-1.552-9.371-4.258-1.424-1.617-3.475-2.544-5.629-2.544s-4.205.927-5.629 2.544c-2.383 2.706-5.799 4.258-9.371 4.258s-6.988-1.552-9.371-4.258c-1.424-1.617-3.475-2.544-5.629-2.544s-4.205.927-5.629 2.544c-2.383 2.706-5.799 4.258-9.371 4.258-4.091 0-7.932-2.018-10.275-5.397-1.527-2.201-4.116-3.407-6.785-3.2-2.671.223-5.021 1.854-6.163 4.278-1.235 2.624-3.896 4.319-6.776 4.319-4.136 0-7.5-3.364-7.5-7.5s3.364-7.5 7.5-7.5c4.143 0 7.5-3.357 7.5-7.5v-20.335c0-12.785 4.661-25.109 13.124-34.703 1.209-1.37 1.876-3.135 1.876-4.962v-70c0-6.893 5.607-12.5 12.5-12.5h50c6.893 0 12.5 5.607 12.5 12.5v70c0 1.827.667 3.592 1.876 4.962 8.463 9.594 13.124 21.918 13.124 34.703v20.334c0 4.143 3.357 7.5 7.5 7.5 4.136 0 7.5 3.364 7.5 7.5s-3.366 7.5-7.502 7.5zm3.926-64.464c-2.539-7.497-6.382-14.54-11.426-20.777v-59.083c19.868 3.554 35 20.949 35 41.824 0 16.236-9.394 30.949-23.574 38.036z" data-original="#000000" class="active-path" data-old_color="#000000" fill="#FFFFFF"/><path d="m225.613 57.014c-11.666 9.637-19.112 24.208-19.112 40.486 0 28.948 23.552 52.5 52.5 52.5s52.5-23.552 52.5-52.5c0-16.278-7.447-30.849-19.112-40.486-.276-.257-.578-.49-.895-.705-.565-.447-1.137-.883-1.72-1.307 6.08-4.565 10.021-11.832 10.021-20.003 0-12.258-8.868-22.483-20.526-24.599-4.651-6.428-12.203-10.4-20.268-10.4s-15.617 3.972-20.267 10.401c-11.658 2.116-20.526 12.341-20.526 24.599 0 8.171 3.941 15.438 10.021 20.003-.583.423-1.156.86-1.72 1.307-.318.214-.619.447-.896.704zm70.888 40.486c0 20.678-16.822 37.5-37.5 37.5s-37.5-16.822-37.5-37.5c0-8.433 2.799-16.223 7.515-22.493 6.962 9.254 18.001 14.993 29.985 14.993s23.023-5.739 29.985-14.993c4.716 6.27 7.515 14.06 7.515 22.493zm-18.812-32.491c-4.112 6.131-11.079 9.991-18.688 9.991s-14.576-3.86-18.688-9.991c5.506-3.179 11.885-5.009 18.688-5.009s13.182 1.83 18.688 5.009zm-34.481-20.009c-5.514 0-10-4.486-10-10s4.486-10 10-10c2.894 0 5.529-1.665 6.772-4.277 1.68-3.53 5.136-5.723 9.021-5.723s7.341 2.192 9.021 5.723c1.243 2.612 3.878 4.277 6.772 4.277 5.514 0 10 4.486 10 10s-4.486 10-10 10z" data-original="#000000" class="active-path" data-old_color="#000000" fill="#FFFFFF"/><path d="m101.001 451.8c4.143 0 7.5-3.357 7.5-7.5v-15c0-4.143-3.357-7.5-7.5-7.5s-7.5 3.357-7.5 7.5v15c0 4.142 3.357 7.5 7.5 7.5z" data-original="#000000" class="active-path" data-old_color="#000000" fill="#FFFFFF"/><path d="m101.001 361.4c4.143 0 7.5-3.357 7.5-7.5v-15c0-4.143-3.357-7.5-7.5-7.5s-7.5 3.357-7.5 7.5v15c0 4.143 3.357 7.5 7.5 7.5z" data-original="#000000" class="active-path" data-old_color="#000000" fill="#FFFFFF"/><path d="m131.001 0h-30c-4.143 0-7.5 3.357-7.5 7.5v30c0 4.143 3.357 7.5 7.5 7.5s7.5-3.357 7.5-7.5v-22.5h22.5c4.143 0 7.5-3.357 7.5-7.5s-3.357-7.5-7.5-7.5z" data-original="#000000" class="active-path" data-old_color="#000000" fill="#FFFFFF"/><path d="m101.001 316.2c4.143 0 7.5-3.357 7.5-7.5v-15c0-4.143-3.357-7.5-7.5-7.5s-7.5 3.357-7.5 7.5v15c0 4.143 3.357 7.5 7.5 7.5z" data-original="#000000" class="active-path" data-old_color="#000000" fill="#FFFFFF"/><path d="m101.001 406.6c4.143 0 7.5-3.357 7.5-7.5v-15c0-4.143-3.357-7.5-7.5-7.5s-7.5 3.357-7.5 7.5v15c0 4.142 3.357 7.5 7.5 7.5z" data-original="#000000" class="active-path" data-old_color="#000000" fill="#FFFFFF"/><path d="m101.001 180.6c4.143 0 7.5-3.357 7.5-7.5v-15c0-4.143-3.357-7.5-7.5-7.5s-7.5 3.357-7.5 7.5v15c0 4.142 3.357 7.5 7.5 7.5z" data-original="#000000" class="active-path" data-old_color="#000000" fill="#FFFFFF"/><path d="m101.001 271c4.143 0 7.5-3.357 7.5-7.5v-15c0-4.143-3.357-7.5-7.5-7.5s-7.5 3.357-7.5 7.5v15c0 4.143 3.357 7.5 7.5 7.5z" data-original="#000000" class="active-path" data-old_color="#000000" fill="#FFFFFF"/><path d="m101.001 90.2c4.143 0 7.5-3.357 7.5-7.5v-15c0-4.143-3.357-7.5-7.5-7.5s-7.5 3.357-7.5 7.5v15c0 4.143 3.357 7.5 7.5 7.5z" data-original="#000000" class="active-path" data-old_color="#000000" fill="#FFFFFF"/><path d="m131.001 497h-22.5v-22.5c0-4.143-3.357-7.5-7.5-7.5s-7.5 3.357-7.5 7.5v30c0 4.143 3.357 7.5 7.5 7.5h30c4.143 0 7.5-3.357 7.5-7.5s-3.357-7.5-7.5-7.5z" data-original="#000000" class="active-path" data-old_color="#000000" fill="#FFFFFF"/><path d="m101.001 135.4c4.143 0 7.5-3.357 7.5-7.5v-15c0-4.143-3.357-7.5-7.5-7.5s-7.5 3.357-7.5 7.5v15c0 4.143 3.357 7.5 7.5 7.5z" data-original="#000000" class="active-path" data-old_color="#000000" fill="#FFFFFF"/><path d="m101.001 225.8c4.143 0 7.5-3.357 7.5-7.5v-15c0-4.143-3.357-7.5-7.5-7.5s-7.5 3.357-7.5 7.5v15c0 4.142 3.357 7.5 7.5 7.5z" data-original="#000000" class="active-path" data-old_color="#000000" fill="#FFFFFF"/><path d="m411.001 421.8c-4.143 0-7.5 3.357-7.5 7.5v15c0 4.143 3.357 7.5 7.5 7.5s7.5-3.357 7.5-7.5v-15c0-4.143-3.357-7.5-7.5-7.5z" data-original="#000000" class="active-path" data-old_color="#000000" fill="#FFFFFF"/><path d="m411.001 331.4c-4.143 0-7.5 3.357-7.5 7.5v15c0 4.143 3.357 7.5 7.5 7.5s7.5-3.357 7.5-7.5v-15c0-4.142-3.357-7.5-7.5-7.5z" data-original="#000000" class="active-path" data-old_color="#000000" fill="#FFFFFF"/><path d="m411.001 0h-30c-4.143 0-7.5 3.357-7.5 7.5s3.357 7.5 7.5 7.5h22.5v22.5c0 4.143 3.357 7.5 7.5 7.5s7.5-3.357 7.5-7.5v-30c0-4.143-3.357-7.5-7.5-7.5z" data-original="#000000" class="active-path" data-old_color="#000000" fill="#FFFFFF"/><path d="m411.001 286.2c-4.143 0-7.5 3.357-7.5 7.5v15c0 4.143 3.357 7.5 7.5 7.5s7.5-3.357 7.5-7.5v-15c0-4.142-3.357-7.5-7.5-7.5z" data-original="#000000" class="active-path" data-old_color="#000000" fill="#FFFFFF"/><path d="m411.001 376.6c-4.143 0-7.5 3.357-7.5 7.5v15c0 4.143 3.357 7.5 7.5 7.5s7.5-3.357 7.5-7.5v-15c0-4.143-3.357-7.5-7.5-7.5z" data-original="#000000" class="active-path" data-old_color="#000000" fill="#FFFFFF"/><path d="m411.001 150.6c-4.143 0-7.5 3.357-7.5 7.5v15c0 4.143 3.357 7.5 7.5 7.5s7.5-3.357 7.5-7.5v-15c0-4.143-3.357-7.5-7.5-7.5z" data-original="#000000" class="active-path" data-old_color="#000000" fill="#FFFFFF"/><path d="m411.001 241c-4.143 0-7.5 3.357-7.5 7.5v15c0 4.143 3.357 7.5 7.5 7.5s7.5-3.357 7.5-7.5v-15c0-4.143-3.357-7.5-7.5-7.5z" data-original="#000000" class="active-path" data-old_color="#000000" fill="#FFFFFF"/><path d="m411.001 60.2c-4.143 0-7.5 3.357-7.5 7.5v15c0 4.143 3.357 7.5 7.5 7.5s7.5-3.357 7.5-7.5v-15c0-4.142-3.357-7.5-7.5-7.5z" data-original="#000000" class="active-path" data-old_color="#000000" fill="#FFFFFF"/><path d="m411.001 467c-4.143 0-7.5 3.357-7.5 7.5v22.5h-22.5c-4.143 0-7.5 3.357-7.5 7.5s3.357 7.5 7.5 7.5h30c4.143 0 7.5-3.357 7.5-7.5v-30c0-4.143-3.357-7.5-7.5-7.5z" data-original="#000000" class="active-path" data-old_color="#000000" fill="#FFFFFF"/><path d="m411.001 105.4c-4.143 0-7.5 3.357-7.5 7.5v15c0 4.143 3.357 7.5 7.5 7.5s7.5-3.357 7.5-7.5v-15c0-4.142-3.357-7.5-7.5-7.5z" data-original="#000000" class="active-path" data-old_color="#000000" fill="#FFFFFF"/><path d="m411.001 195.8c-4.143 0-7.5 3.357-7.5 7.5v15c0 4.143 3.357 7.5 7.5 7.5s7.5-3.357 7.5-7.5v-15c0-4.143-3.357-7.5-7.5-7.5z" data-original="#000000" class="active-path" data-old_color="#000000" fill="#FFFFFF"/></g></g> </svg>
