<?xml version="1.0"?>
<svg xmlns="http://www.w3.org/2000/svg" id="Layer_1" enable-background="new 0 0 511 511" height="512px" viewBox="0 0 511 511" width="512px" class=""><g><g><path d="m48 79h112v49h-81v-32.5h-15v280c0 12.958 10.542 23.5 23.5 23.5h64c12.958 0 23.5-10.542 23.5-23.5v-127.999h-15v40.499h-81v-97h81v40.5h15v-152.5h16v-79h-143zm112 224v72.5c0 4.687-3.814 8.5-8.5 8.5h-64c-4.687 0-8.5-3.813-8.5-8.5v-72.5zm0-127h-81v-33h81zm-1-161h17v49h-17zm-32 0h17v49h-17zm-32 0h17v49h-17zm-32 0h17v49h-17z" data-original="#000000" class="active-path" data-old_color="#000000" fill="#FFFFFF"/><path d="m113.329 211.237c-4.065 5.886-17.329 25.894-17.329 36.263 0 12.958 10.542 23.5 23.5 23.5s23.5-10.542 23.5-23.5c0-10.369-13.264-30.377-17.329-36.263l-6.171-8.934zm14.671 36.264c0 4.686-3.813 8.499-8.5 8.499s-8.5-3.813-8.5-8.499c.019-2.517 3.589-9.959 8.5-18.147 4.911 8.188 8.481 15.629 8.5 18.147z" data-original="#000000" class="active-path" data-old_color="#000000" fill="#FFFFFF"/><path d="m327.5 64c-74.715 0-135.5 60.785-135.5 135.5 0 60.613 40.007 112.056 95 129.316v142.684c0 21.78 17.72 39.5 39.5 39.5s39.5-17.72 39.5-39.5v-142.081c56.019-16.63 97-68.575 97-129.919 0-74.715-60.785-135.5-135.5-135.5zm23.5 407.5c0 13.509-10.99 24.5-24.5 24.5s-24.5-10.991-24.5-24.5v-104.5h49zm0-119.5h-49v-19.417c8.262 1.58 16.784 2.417 25.5 2.417 8.013 0 15.865-.704 23.5-2.045zm-23.5-32c-66.444 0-120.5-54.056-120.5-120.5s54.056-120.5 120.5-120.5 120.5 54.056 120.5 120.5-54.056 120.5-120.5 120.5z" data-original="#000000" class="active-path" data-old_color="#000000" fill="#FFFFFF"/><path d="m327.5 96c-57.07 0-103.5 46.43-103.5 103.5s46.43 103.5 103.5 103.5c25.242 0 49.557-9.19 68.462-25.876l-9.926-11.246c-16.163 14.266-36.952 22.122-58.536 22.122-48.799 0-88.5-39.701-88.5-88.5s39.701-88.5 88.5-88.5 88.5 39.701 88.5 88.5c0 20.345-6.711 39.471-19.407 55.31l11.703 9.382c14.64-18.265 22.704-41.239 22.704-64.692 0-57.07-46.43-103.5-103.5-103.5z" data-original="#000000" class="active-path" data-old_color="#000000" fill="#FFFFFF"/><path d="m326.5 152c-40.094 0-71.5 20.864-71.5 47.5s31.406 47.5 71.5 47.5 71.5-20.864 71.5-47.5-31.406-47.5-71.5-47.5zm0 80c-30.626 0-56.5-14.883-56.5-32.5s25.874-32.5 56.5-32.5 56.5 14.883 56.5 32.5-25.874 32.5-56.5 32.5z" data-original="#000000" class="active-path" data-old_color="#000000" fill="#FFFFFF"/><path d="m326.5 192c-10.072 0-16.5-5.034-16.5-8.5h-15c0 13.178 13.837 23.5 31.5 23.5s31.5-10.322 31.5-23.5h-15c0 3.466-6.428 8.5-16.5 8.5z" data-original="#000000" class="active-path" data-old_color="#000000" fill="#FFFFFF"/><path d="m311.5 376h16v15h-16z" data-original="#000000" class="active-path" data-old_color="#000000" fill="#FFFFFF"/><path d="m327.5 392h16v15h-16z" data-original="#000000" class="active-path" data-old_color="#000000" fill="#FFFFFF"/><path d="m87.5 312h16v15h-16z" data-original="#000000" class="active-path" data-old_color="#000000" fill="#FFFFFF"/><path d="m103.5 328h16v15h-16z" data-original="#000000" class="active-path" data-old_color="#000000" fill="#FFFFFF"/></g></g> </svg>
